<svg width="36" height="54" viewBox="0 0 36 54" fill="none" xmlns="http://www.w3.org/2000/svg">
<path d="M18.8637 52.137C18.4778 52.7983 17.5222 52.7983 17.1363 52.137L3.28924 28.4083C2.90021 27.7416 3.38107 26.9043 4.15293 26.9043L31.8471 26.9043C32.6189 26.9043 33.0998 27.7416 32.7108 28.4083L18.8637 52.137Z" fill="#FF77A9"/>
<circle cx="18" cy="18" r="18" fill="#EC407A"/>
<ellipse cx="23.1951" cy="9.33009" rx="3.7089" ry="5.18068" transform="rotate(6.26725 23.1951 9.33009)" fill="white"/>
<ellipse cx="13.4004" cy="9.28727" rx="3.74409" ry="5.22984" transform="rotate(-5.86655 13.4004 9.28727)" fill="white"/>
<ellipse cx="5.44694" cy="16.2642" rx="3.59138" ry="5.01653" transform="rotate(-19.5646 5.44694 16.2642)" fill="white"/>
<ellipse cx="30.5861" cy="16.3643" rx="3.56787" ry="4.98369" transform="rotate(19.9491 30.5861 16.3643)" fill="white"/>
<ellipse cx="18" cy="20.6751" rx="6.25532" ry="5.10638" fill="white"/>
<ellipse cx="14.3617" cy="26.4836" rx="6.95744" ry="5.80851" fill="white"/>
<ellipse cx="22.1489" cy="26.4836" rx="6.95744" ry="5.80851" fill="white"/>
</svg>
