<svg width="37" height="54" viewBox="0 0 37 54" fill="none" xmlns="http://www.w3.org/2000/svg">
<path d="M17.2935 52.137C17.6794 52.7983 18.6349 52.7983 19.0208 52.137L32.8679 28.4083C33.257 27.7416 32.7761 26.9043 32.0042 26.9043L4.31007 26.9043C3.5382 26.9043 3.05734 27.7416 3.44637 28.4083L17.2935 52.137Z" fill="#80D6FF"/>
<circle r="18" transform="matrix(-1 0 0 1 18.1571 18)" fill="#42A5F5"/>
<ellipse rx="3.7089" ry="5.18068" transform="matrix(-0.994024 0.109166 0.109166 0.994024 12.9621 9.33009)" fill="white"/>
<ellipse rx="3.74409" ry="5.22984" transform="matrix(-0.994763 -0.102212 -0.102212 0.994763 22.7567 9.28727)" fill="white"/>
<ellipse rx="3.59138" ry="5.01653" transform="matrix(-0.942264 -0.33487 -0.33487 0.942264 30.7102 16.2642)" fill="white"/>
<ellipse rx="3.56787" ry="4.98369" transform="matrix(-0.939996 0.341186 0.341186 0.939996 5.57107 16.3643)" fill="white"/>
<ellipse rx="6.25532" ry="5.10638" transform="matrix(-1 0 0 1 18.1571 20.6751)" fill="white"/>
<ellipse rx="6.95745" ry="5.80851" transform="matrix(-1 0 0 1 21.7954 26.4836)" fill="white"/>
<ellipse rx="6.95745" ry="5.80851" transform="matrix(-1 0 0 1 14.0082 26.4836)" fill="white"/>
</svg>
