<svg width="200" height="200" viewBox="0 0 200 200" fill="none" xmlns="http://www.w3.org/2000/svg">
<circle cx="100" cy="100" r="100" fill="#F2F2F2"/>
<circle cx="100" cy="100" r="94" fill="white"/>
<ellipse rx="10.3567" ry="15.4582" transform="matrix(-0.886424 0.462875 0.449748 0.893156 38.4305 67.3753)" fill="#EC407A"/>
<ellipse rx="10.4538" ry="15.6063" transform="matrix(-0.967739 0.251954 0.265306 0.964164 63.9189 57.5212)" fill="#EC407A"/>
<ellipse rx="10.1013" ry="14.8727" transform="matrix(-1 0.000761566 0.0436221 0.999048 92.075 69.0834)" fill="#EC407A"/>
<ellipse rx="10.0382" ry="14.7712" transform="matrix(-0.741989 0.670412 0.637453 0.77049 26.645 94.3478)" fill="#EC407A"/>
<path fill-rule="evenodd" clip-rule="evenodd" d="M48.0425 100.825C47.9331 100.583 47.8303 100.335 47.7344 100.084C44.7345 92.215 49.6036 83.0527 58.6099 79.6191C67.6161 76.1856 77.349 79.7811 80.3489 87.6499C80.4986 88.0425 80.6287 88.4383 80.7397 88.8365C88.3181 88.6925 95.2457 92.73 97.843 99.5428C101.255 108.494 95.9012 118.845 85.884 122.664C82.1235 124.098 78.2403 124.407 74.6761 123.761C72.447 126.616 69.3436 128.97 65.5831 130.404C55.5659 134.223 44.6791 130.063 41.2667 121.112C38.5036 113.864 41.4884 105.698 48.0425 100.825Z" fill="#EC407A"/>
<ellipse rx="9.83809" ry="15.0848" transform="matrix(-0.971232 -0.238134 -0.258242 0.96608 137.469 87.9844)" fill="#42A5F5"/>
<ellipse rx="9.9299" ry="15.2298" transform="matrix(-0.890087 -0.455791 -0.438394 0.898783 161.792 97.0253)" fill="#42A5F5"/>
<ellipse rx="9.62607" ry="14.4787" transform="matrix(-0.742889 -0.669414 -0.623433 0.781876 174.33 123.489)" fill="#42A5F5"/>
<ellipse rx="9.56724" ry="14.3785" transform="matrix(-0.999815 0.0192477 -0.0420191 0.999117 111.913 100.258)" fill="#42A5F5"/>
<path fill-rule="evenodd" clip-rule="evenodd" d="M122.915 118.674C122.993 118.426 123.078 118.179 123.171 117.933C126.072 110.242 135.366 106.626 143.929 109.856C152.492 113.086 157.083 121.939 154.182 129.63C154.037 130.014 153.876 130.388 153.701 130.751C159.154 135.484 161.477 142.871 158.966 149.53C155.666 158.278 145.269 162.458 135.745 158.866C132.169 157.517 129.224 155.264 127.116 152.514C123.716 153.187 120.017 152.933 116.442 151.585C106.917 147.992 101.871 137.987 105.171 129.239C107.843 122.155 115.168 118.066 122.915 118.674Z" fill="#42A5F5"/>
</svg>
