<svg width="37" height="54" viewBox="0 0 37 54" fill="none" xmlns="http://www.w3.org/2000/svg">
<path d="M18.1363 52.137C18.5222 52.7983 19.4778 52.7983 19.8637 52.137L33.7108 28.4083C34.0998 27.7416 33.6189 26.9043 32.8471 26.9043L5.15292 26.9043C4.38105 26.9043 3.90019 27.7416 4.28922 28.4083L18.1363 52.137Z" fill="#80D6FF"/>
<circle r="18" transform="matrix(-1 0 0 1 19 18)" fill="#42A5F5"/>
<ellipse cx="18.8923" cy="20.2027" rx="12.3366" ry="9.7973" fill="white"/>
<path d="M8.0247 7.10814L16.3092 11.706L8.10113 15.3605L8.0247 7.10814Z" fill="white"/>
<path d="M29.1928 7.13301L29.0688 15.3859L20.8822 11.741L29.1928 7.13301Z" fill="white"/>
<line y1="-0.5" x2="36.1135" y2="-0.5" transform="matrix(-0.990885 -0.13471 0.194951 -0.980813 36.7844 24.054)" stroke="white"/>
<line y1="-0.5" x2="35.7847" y2="-0.5" transform="matrix(-0.999993 0.00377635 -0.00552115 -0.999985 36.7844 21.6216)" stroke="white"/>
<line y1="-0.5" x2="35.6136" y2="-0.5" transform="matrix(-0.989526 0.144358 -0.208599 -0.978001 36.5126 19.1186)" stroke="white"/>
<line x1="15.5158" y1="25.3336" x2="18.7193" y2="22.1301" stroke="#42A5F5"/>
<line x1="19.3315" y1="22.1635" x2="22.535" y2="25.367" stroke="#42A5F5"/>
</svg>
