<svg width="39" height="54" viewBox="0 0 39 54" fill="none" xmlns="http://www.w3.org/2000/svg">
<path d="M19.8637 52.137C19.4778 52.7983 18.5222 52.7983 18.1363 52.137L4.28924 28.4083C3.90021 27.7416 4.38107 26.9043 5.15293 26.9043L32.8471 26.9043C33.6189 26.9043 34.0998 27.7416 33.7108 28.4083L19.8637 52.137Z" fill="#FF77A9"/>
<circle cx="19" cy="18" r="18" fill="#EC407A"/>
<ellipse cx="19.608" cy="20.8108" rx="12.8301" ry="10.1892" fill="white"/>
<path d="M8.30563 7.19246L16.9215 11.9742L8.38511 15.7749L8.30563 7.19246Z" fill="white"/>
<path d="M30.3205 7.21833L30.1915 15.8013L21.6775 12.0106L30.3205 7.21833Z" fill="white"/>
<line y1="-0.5" x2="37.558" y2="-0.5" transform="matrix(-0.990885 -0.13471 0.194951 -0.980813 38.2158 24.8162)" stroke="white"/>
<line y1="-0.5" x2="37.2161" y2="-0.5" transform="matrix(-0.999993 0.00377635 -0.00552115 -0.999985 38.2158 22.2865)" stroke="white"/>
<line y1="-0.5" x2="37.0382" y2="-0.5" transform="matrix(-0.989526 0.144358 -0.208599 -0.978001 37.933 19.6834)" stroke="white"/>
<line x1="16.1106" y1="26.1611" x2="19.4422" y2="22.8294" stroke="#EC407A"/>
<line x1="20.0506" y1="22.8642" x2="23.3823" y2="26.1958" stroke="#EC407A"/>
</svg>
