<svg width="36" height="54" viewBox="0 0 36 54" fill="none" xmlns="http://www.w3.org/2000/svg">
<path d="M17.1363 52.137C17.5222 52.7983 18.4778 52.7983 18.8637 52.137L32.7108 28.4083C33.0998 27.7416 32.6189 26.9043 31.8471 26.9043L4.15292 26.9043C3.38105 26.9043 2.90019 27.7416 3.28922 28.4083L17.1363 52.137Z" fill="#80D6FF"/>
<circle r="18" transform="matrix(-1 0 0 1 18 18)" fill="#42A5F5"/>
<ellipse rx="3.7089" ry="5.18068" transform="matrix(-0.994024 0.109166 0.109166 0.994024 12.8049 9.33009)" fill="white"/>
<ellipse rx="3.74409" ry="5.22984" transform="matrix(-0.994763 -0.102212 -0.102212 0.994763 22.5996 9.28727)" fill="white"/>
<ellipse rx="3.59138" ry="5.01653" transform="matrix(-0.942264 -0.33487 -0.33487 0.942264 30.5531 16.2642)" fill="white"/>
<ellipse rx="3.56787" ry="4.98369" transform="matrix(-0.939996 0.341186 0.341186 0.939996 5.41394 16.3643)" fill="white"/>
<ellipse rx="6.25532" ry="5.10638" transform="matrix(-1 0 0 1 18 20.6751)" fill="white"/>
<ellipse rx="6.95745" ry="5.80851" transform="matrix(-1 0 0 1 21.6383 26.4837)" fill="white"/>
<ellipse rx="6.95745" ry="5.80851" transform="matrix(-1 0 0 1 13.8511 26.4837)" fill="white"/>
</svg>
