<svg width="36" height="54" viewBox="0 0 36 54" fill="none" xmlns="http://www.w3.org/2000/svg">
<path d="M17.1363 52.137C17.5222 52.7983 18.4778 52.7983 18.8637 52.137L32.7108 28.4083C33.0998 27.7416 32.6189 26.9043 31.8471 26.9043L4.15292 26.9043C3.38105 26.9043 2.90019 27.7416 3.28922 28.4083L17.1363 52.137Z" fill="#80D6FF"/>
<circle r="18" transform="matrix(-1 0 0 1 18 18)" fill="#42A5F5"/>
<ellipse cx="18.3103" cy="17.1936" rx="10.261" ry="10.5072" fill="white"/>
<ellipse cx="18.2283" cy="23.7606" rx="11.9848" ry="7.71625" fill="white"/>
<ellipse cx="8.12765" cy="11.1438" rx="6.46995" ry="3.12402" transform="rotate(-33 8.12765 11.1438)" fill="white"/>
<ellipse cx="28.6394" cy="11.1884" rx="6.46995" ry="3.12402" transform="rotate(33 28.6394 11.1884)" fill="white"/>
<line x1="18.7283" y1="25.7308" x2="18.7283" y2="29.671" stroke="#42A5F5"/>
<line x1="16.1042" y1="25.1861" x2="20.3727" y2="25.1861" stroke="#42A5F5"/>
</svg>
