<svg width="36" height="54" viewBox="0 0 36 54" fill="none" xmlns="http://www.w3.org/2000/svg">
<path d="M17.1363 52.137C17.5222 52.7983 18.4778 52.7983 18.8637 52.137L32.7108 28.4083C33.0998 27.7416 32.6189 26.9043 31.8471 26.9043L4.15292 26.9043C3.38105 26.9043 2.90019 27.7416 3.28922 28.4083L17.1363 52.137Z" fill="#80D6FF"/>
<circle r="18" transform="matrix(-1 0 0 1 18 18)" fill="#42A5F5"/>
<ellipse cx="18.037" cy="17.072" rx="10.66" ry="10.2365" fill="white"/>
<ellipse cx="10.3682" cy="7.85123" rx="2.47087" ry="1.69431" transform="rotate(37 10.3682 7.85123)" fill="white"/>
<ellipse cx="25.7384" cy="7.90971" rx="2.47087" ry="1.69431" transform="rotate(-37 25.7384 7.90971)" fill="white"/>
<ellipse cx="10.4832" cy="20.8136" rx="7.4832" ry="6.49485" fill="white"/>
<ellipse cx="25.732" cy="20.8136" rx="7.4832" ry="6.49485" fill="white"/>
<line x1="16.6893" y1="16.4992" x2="19.3933" y2="16.4992" stroke="#42A5F5"/>
</svg>
